<?xml version="1.0" encoding="utf-8"?>
<!-- Generator: Adobe Illustrator 25.0.1, SVG Export Plug-In . SVG Version: 6.00 Build 0)  -->
<svg version="1.1" id="Layer_1" xmlns="http://www.w3.org/2000/svg" xmlns:xlink="http://www.w3.org/1999/xlink" x="0px" y="0px"
	 viewBox="0 0 2500 2500" style="enable-background:new 0 0 2500 2500;" xml:space="preserve">
<style type="text/css">
	.st0{fill:none;}
	.st1{fill:#FFFFFF;}
</style>
<g id="Illustration">
	<g id="Sortation_systems_1_">
		<path class="st0" d="M1887.2,1656.3L713.1,1453.8c-35.7-6.2-35.7-57.5,0-63.6l328.4-57.4c6.5-1.1,12.8-2.6,18.8-4.4l420.9-73.4
			c117.3-20.2,203.9-119.6,208.8-237.6l-162.6-29v2c0,59.2-42.6,109.8-100.9,119.8l-256.2,45c-8.3-61.7-51.1-118.7-128.5-132.3
			l-408.4-64.9c-76.2-12.1-76.6-121.6-0.6-134.7L924.5,773c3.4-0.6,6.8-1.3,10.2-2l403.6-68.5c115.5-19.9,201.4-116.5,208.7-232.1
			c-52.8-26.2-107.2-48.3-162.4-66.4v33.9c0,59.2-42.8,109.8-101.1,119.8l-157,26.7c4.7-19.2,7.2-39.2,7.2-59.7V349.4
			c-55-6-110-8.2-162.9-6.5v165.4c0,59.2-42.8,109.8-101.1,119.8l-11,1.9l-180.5,30.7l0.4,0.3L502,691.7c-3.2,0.5-6.3,1.2-9.3,1.8
			c-0.5,0.1-0.9,0.2-1.4,0.3c-2.9,0.6-5.7,1.3-8.5,2.1c-0.6,0.2-1.2,0.3-1.8,0.5c-2.7,0.7-5.4,1.5-8.1,2.3c-0.6,0.2-1.2,0.4-1.8,0.6
			c-2.5,0.8-4.9,1.6-7.3,2.5c-0.6,0.2-1.1,0.4-1.7,0.6c-2.2,0.8-4.4,1.7-6.6,2.6c-0.8,0.3-1.5,0.6-2.2,0.9c-2.2,0.9-4.3,1.9-6.5,2.9
			c-0.9,0.4-1.8,0.8-2.7,1.3c-2,1-4,2-6,3c-0.9,0.5-1.8,1-2.8,1.5c-1.5,0.8-2.9,1.6-4.3,2.5c-1.3,0.8-2.6,1.5-3.9,2.3
			c-1.3,0.8-2.5,1.6-3.8,2.4c-120.7,78.4-116.4,271.2,12.2,341.6c0,0,0,0,0,0c2.3,1.3,4.7,2.5,7.1,3.7c0.2,0.1,0.5,0.2,0.7,0.3
			c2.2,1.1,4.5,2.2,6.8,3.2c0.5,0.2,0.9,0.4,1.4,0.6c2.1,0.9,4.3,1.8,6.5,2.7c0.7,0.3,1.4,0.5,2.1,0.8c2,0.8,8.1,2.9,9.1,3.2
			c1.9,0.6,8.3,2.6,9.7,2.9c1.7,0.5,8.7,2.2,10.5,2.7c1.3,0.3,10.4,2.2,13.8,2.7l387,63.7c29.6,5.1,29.7,47.6,0.1,52.7l-272.2,47.5
			c-187.8,32.8-187.5,302.5,0.5,334.8l816.5,140.7c187.6,32.3,188,301.6,0.5,334.4l-450.4,78.9c30.4,6.8,60.6,12.2,90.3,16.1
			c336,44.7,773.5-72,978.3-395.9C2018.8,1708.4,1963.2,1669.4,1887.2,1656.3z"/>
		<path d="M1126.5,586.7c-0.6,0-1.2-0.2-1.6-0.7c-0.5-0.5-0.7-1.3-0.5-2c4.7-19.3,7.1-39.3,7.1-59.2V349.4c0-1.2,1-2.2,2.2-2.2
			c1.2,0,2.2,1,2.2,2.2v175.3c0,19.2-2.2,38.3-6.5,57l153.7-26.2c57.5-9.9,99.3-59.4,99.3-117.7V404c0-1.2,1-2.2,2.2-2.2
			s2.2,1,2.2,2.2v33.9c0,60.4-43.3,111.7-102.9,122l-157,26.7C1126.8,586.7,1126.7,586.7,1126.5,586.7z"/>
		<path d="M1170.2,1157.4c-0.5,0-0.9-0.1-1.3-0.4c-0.5-0.4-0.8-0.9-0.9-1.5c-7.2-53.6-44.3-116-126.7-130.5L633,960.1
			c-40.7-6.5-59-39.3-59.2-68.9c-0.2-29.8,17.9-63,58.6-70.1l291.7-50.3c3.2-0.6,6.5-1.2,10.1-2l403.7-68.5
			c114.5-19.7,199.5-114.3,206.9-230.1c0.1-1.2,1.1-2.1,2.3-2.1c1.2,0.1,2.1,1.1,2.1,2.3c-3.6,56.5-26.5,110.9-64.4,153.3
			c-38.1,42.5-90,71.2-146.2,80.9L935,773.1c-3.5,0.8-6.9,1.4-10.2,2l-291.7,50.3c-38.2,6.6-55.2,37.8-55,65.7
			c0.2,27.8,17.4,58.6,55.5,64.6l408.4,64.9c83.5,14.7,121.8,77.4,130,132l254-44.6c57.4-9.9,99.1-59.4,99.1-117.7v-2
			c0-1.2,1-2.2,2.2-2.2s2.2,1,2.2,2.2v2c0,60.4-43.2,111.7-102.8,122l-256.2,45C1170.4,1157.4,1170.3,1157.4,1170.2,1157.4z"/>
		<path d="M1278,2165c-1.2,0-2.1-0.9-2.2-2.1c-0.1-1.2,0.9-2.2,2.1-2.3c335.9-17.6,624.9-167.6,773.3-401.2
			c-37.6-54-94.4-88.9-164.3-101L712.7,1455.9c-19.8-3.4-28.6-19.5-28.6-34c0-14.5,8.9-30.6,28.6-34l328.4-57.4
			c6.2-1.1,12.2-2.5,18.6-4.3c0.1,0,0.2,0,0.2-0.1l420.9-73.4c115.1-19.8,202.2-118.9,207-235.5c0.1-1.2,1.1-2.1,2.3-2.1
			c1.2,0,2.2,1.1,2.1,2.3c-2.4,57.7-24.7,113.4-62.8,156.8c-38.2,43.6-90.7,73-147.9,82.9l-420.7,73.4c-6.4,1.9-12.6,3.3-18.9,4.4
			l-328.4,57.4c-17.3,3-25,17-25,29.6c0,12.6,7.7,26.7,24.9,29.6l1174.2,202.5c71.6,12.3,129.7,48.3,168,104c0.5,0.7,0.5,1.7,0,2.4
			c-78.4,124-193.1,223.2-341,294.9c-131.2,63.6-282.1,101.5-436.6,109.6C1278.1,2165,1278.1,2165,1278,2165z"/>
		<path d="M985.2,2141.3c-1,0-2-0.8-2.2-1.8c-0.2-1.2,0.6-2.3,1.8-2.5l450.4-78.9c95.9-16.8,138.7-95.1,138.6-165.2
			c-0.1-70.1-43.1-148.3-139.1-164.9l-816.5-140.7c-98.6-16.9-142.9-97.3-143-169.4c-0.1-72.1,43.9-152.6,142.5-169.8l272.2-47.5
			c14.1-2.5,20.4-13.9,20.3-24.2c0-10.3-6.3-21.8-20.4-24.2l-387-63.7c-3.3-0.6-12.4-2.4-13.9-2.8c-1.9-0.4-9-2.2-10.6-2.7
			c-1.3-0.4-7.8-2.3-9.8-3c-1-0.3-7.1-2.5-9.2-3.3l-2.2-0.8c-2.2-0.9-4.4-1.8-6.6-2.7l-1.4-0.6c-2.3-1-4.6-2.1-6.9-3.2l-0.7-0.3
			c-2.5-1.2-4.9-2.5-7.2-3.7c-60.3-33-98-95.9-100.7-168.2c-2.8-73.2,30.3-139.5,88.4-177.2c1.3-0.8,2.5-1.6,3.8-2.4
			c1.3-0.8,2.6-1.6,3.9-2.3c1.4-0.8,2.9-1.7,4.4-2.5l0.5-0.3c0.7-0.4,1.5-0.8,2.2-1.2c2-1,4-2.1,6-3.1c0.9-0.4,1.8-0.9,2.7-1.3
			c2.1-1,4.3-2,6.5-2.9c0.5-0.2,1.1-0.5,1.7-0.7l0.6-0.2c2.2-0.9,4.4-1.8,6.6-2.6l1.7-0.6c2.4-0.9,4.9-1.7,7.4-2.5l1.8-0.6
			c2.6-0.8,5.2-1.6,8.1-2.4l1.8-0.5c3-0.8,5.8-1.5,8.6-2.1l1.4-0.3c3.4-0.7,6.5-1.3,9.4-1.8l175-30.2c0.3-0.3,0.7-0.5,1.2-0.6
			L869.4,626c57.5-9.9,99.3-59.4,99.3-117.7V343c0-1.2,1-2.2,2.2-2.2s2.2,1,2.2,2.2v165.4c0,60.4-43.3,111.7-102.9,122l-11,1.9
			l-178.9,30.5c-0.3,0.3-0.7,0.5-1.2,0.6l-176.6,30.5c-2.9,0.5-5.9,1.1-9.3,1.8l-1.4,0.3c-2.7,0.6-5.5,1.3-8.4,2l-1.8,0.5
			c-2.8,0.8-5.4,1.5-8,2.3l-1.8,0.6c-2.5,0.8-4.9,1.6-7.3,2.5l-1.7,0.6c-2.2,0.8-4.4,1.7-6.5,2.6l-0.6,0.3c-0.5,0.2-1.1,0.4-1.6,0.7
			c-2.2,0.9-4.3,1.9-6.4,2.9c-0.9,0.4-1.8,0.8-2.6,1.3c-2,1-4,2-5.9,3c-0.7,0.4-1.5,0.8-2.2,1.2l-0.6,0.3c-1.4,0.8-2.9,1.6-4.3,2.4
			c-1.3,0.8-2.6,1.5-3.8,2.3c-1.3,0.8-2.5,1.6-3.7,2.4c-56.8,36.9-89.1,101.7-86.4,173.3c2.7,70.7,39.4,132.2,98.4,164.5
			c2.2,1.2,4.6,2.4,7,3.7l0.7,0.3c2.2,1.1,4.5,2.1,6.8,3.2l1.4,0.6c2.1,0.9,4.3,1.8,6.5,2.7l2.1,0.8c2,0.8,8.1,2.9,9,3.2
			c1.9,0.6,8.3,2.6,9.6,2.9c1.7,0.5,8.7,2.2,10.4,2.6c1.4,0.3,10.4,2.2,13.6,2.7l387,63.7c16.6,2.9,24.1,16.4,24.1,28.5
			c0,12.1-7.4,25.7-24,28.6l-272.2,47.5c-96.1,16.8-138.9,95.2-138.9,165.4c0.1,70.3,43.2,148.5,139.3,165.1l816.5,140.7
			c98.5,17,142.6,97.2,142.7,169.2c0.1,72-43.9,152.3-142.3,169.6l-450.4,78.9C985.5,2141.3,985.3,2141.3,985.2,2141.3z"/>
		<g>
			<g>
				<g>
					<polygon class="st1" points="609.5,512.5 772.7,540.8 935.7,512.4 770.8,483.8 					"/>
					<path d="M772.7,543c-0.1,0-0.3,0-0.4,0l-163.2-28.3c-1.1-0.2-1.8-1.1-1.8-2.2c0-1.1,0.8-2,1.8-2.2l161.3-28.7
						c0.3,0,0.5,0,0.8,0l164.9,28.7c1.1,0.2,1.8,1.1,1.8,2.2c0,1.1-0.8,2-1.8,2.2L773,543C772.9,543,772.8,543,772.7,543z
						 M622.2,512.4l150.5,26.1l150.2-26.1l-152-26.4L622.2,512.4z"/>
				</g>
				<g>
					<polygon class="st1" points="672.8,500.8 836,529.1 877,523.3 712.1,494.6 					"/>
					<path d="M836,531.3c-0.1,0-0.3,0-0.4,0L672.5,503c-1.1-0.2-1.8-1.1-1.8-2.2c0-1.1,0.8-2,1.9-2.2l39.3-6.2c0.2,0,0.5,0,0.7,0
						l164.9,28.7c1.1,0.2,1.8,1.1,1.8,2.2c0,1.1-0.8,2-1.9,2.1l-41,5.8C836.2,531.3,836.1,531.3,836,531.3z M686.3,500.9l149.7,26
						l26.9-3.8l-150.8-26.2L686.3,500.9z"/>
				</g>
				<g>
					<g>
						<polygon class="st1" points="772.6,781 772.6,540.6 608.8,512.4 608.8,752.1 						"/>
						<path d="M772.6,783.2c-0.1,0-0.3,0-0.4,0l-163.8-28.9c-1.1-0.2-1.8-1.1-1.8-2.2V512.4c0-0.6,0.3-1.3,0.8-1.7
							c0.5-0.4,1.2-0.6,1.8-0.5L773,538.4c1.1,0.2,1.8,1.1,1.8,2.2V781c0,0.7-0.3,1.3-0.8,1.7C773.7,783,773.2,783.2,772.6,783.2z
							 M611,750.3l159.4,28.1V542.4L611,515V750.3z"/>
					</g>
				</g>
				<g>
					<polygon points="772.6,781 772.6,540.6 935,512.3 935,752.2 					"/>
					<g>
						<polygon class="st1" points="872.8,524.6 872.8,549.1 839,554.8 839,530.5 						"/>
						<path d="M839,557c-0.5,0-1-0.2-1.4-0.5c-0.5-0.4-0.8-1-0.8-1.7v-24.3c0-1.1,0.8-2,1.8-2.2l33.8-5.9c0.6-0.1,1.3,0.1,1.8,0.5
							c0.5,0.4,0.8,1,0.8,1.7v24.4c0,1.1-0.8,2-1.8,2.2l-33.8,5.7C839.3,557,839.1,557,839,557z M841.2,532.3v19.8l29.4-5v-20
							L841.2,532.3z"/>
					</g>
				</g>
			</g>
			<g>
				<g>
					<path d="M686.4,399.3c-2,0-4-0.7-5.6-2c-3.8-3.1-4.4-8.7-1.3-12.6c22.9-28.2,56.8-44.3,93.1-44.3c35.9,0,69.6,15.9,92.4,43.6
						c3.1,3.8,2.6,9.4-1.2,12.6c-3.8,3.1-9.4,2.6-12.6-1.2c-19.5-23.6-48.1-37.1-78.7-37.1c-30.9,0-59.7,13.8-79.2,37.7
						C691.6,398.2,689,399.3,686.4,399.3z"/>
				</g>
				<g>
					<path d="M715.7,423.1c-2,0-4-0.7-5.6-2c-3.8-3.1-4.4-8.7-1.3-12.6c15.7-19.3,38.9-30.4,63.8-30.4c24.6,0,47.7,10.9,63.3,29.9
						c3.1,3.8,2.6,9.4-1.2,12.6c-3.8,3.1-9.4,2.6-12.6-1.2c-12.3-14.8-30.3-23.4-49.6-23.4c-19.5,0-37.7,8.7-49.9,23.8
						C720.8,422,718.3,423.1,715.7,423.1z"/>
				</g>
				<g>
					<path d="M743.6,445.8c-2,0-4-0.6-5.6-2c-3.8-3.1-4.4-8.7-1.3-12.6c8.8-10.9,21.9-17.1,35.9-17.1c13.7,0,26.6,6.1,35.4,16.6
						c3.2,3.8,2.6,9.4-1.1,12.6c-3.8,3.2-9.4,2.6-12.6-1.1c-5.4-6.5-13.3-10.2-21.7-10.2c-8.6,0-16.6,3.8-22,10.5
						C748.8,444.7,746.2,445.8,743.6,445.8z"/>
				</g>
				<g>
					<ellipse transform="matrix(0.2298 -0.9732 0.9732 0.2298 146.4244 1105.8605)" cx="771.9" cy="460.4" rx="10.3" ry="10.3"/>
				</g>
			</g>
		</g>
		<g>
			<g>
				<polygon class="st1" points="379,552.4 542.1,580.7 705.2,552.4 540.3,523.7 				"/>
				<path d="M542.1,582.9c-0.1,0-0.3,0-0.4,0l-163.2-28.3c-1.1-0.2-1.8-1.1-1.8-2.2c0-1.1,0.8-2,1.8-2.2l161.3-28.7
					c0.3,0,0.5,0,0.8,0l164.9,28.7c1.1,0.2,1.8,1.1,1.8,2.2c0,1.1-0.8,2-1.8,2.2l-163,28.4C542.4,582.9,542.3,582.9,542.1,582.9z
					 M391.7,552.4l150.4,26.1l150.2-26.1l-152-26.4L391.7,552.4z"/>
			</g>
			<g>
				<polygon class="st1" points="442.3,540.7 605.5,569 646.5,563.2 481.6,534.5 				"/>
				<path d="M605.5,571.2c-0.1,0-0.3,0-0.4,0l-163.2-28.3c-1.1-0.2-1.8-1.1-1.8-2.2c0-1.1,0.8-2,1.9-2.2l39.3-6.2c0.2,0,0.5,0,0.7,0
					L646.8,561c1.1,0.2,1.8,1.1,1.8,2.2c0,1.1-0.8,2-1.9,2.1l-41,5.8C605.7,571.2,605.6,571.2,605.5,571.2z M455.8,540.8l149.7,26
					l26.9-3.8l-150.8-26.2L455.8,540.8z"/>
			</g>
			<g>
				<g>
					<polygon class="st1" points="542.1,820.9 542.1,580.5 378.3,552.3 378.3,792 					"/>
					<path d="M542.1,823.1c-0.1,0-0.3,0-0.4,0l-163.8-28.9c-1.1-0.2-1.8-1.1-1.8-2.2V552.3c0-0.6,0.3-1.3,0.8-1.7
						c0.5-0.4,1.1-0.6,1.8-0.5l163.8,28.2c1.1,0.2,1.8,1.1,1.8,2.2v240.4c0,0.7-0.3,1.3-0.8,1.7
						C543.1,822.9,542.6,823.1,542.1,823.1z M380.5,790.2l159.4,28.1V582.3l-159.4-27.4L380.5,790.2L380.5,790.2z"/>
				</g>
			</g>
			<g>
				<polygon points="542.1,820.9 542.1,580.5 704.5,552.2 704.5,792.2 				"/>
				<g>
					<polygon class="st1" points="642.3,564.5 642.3,589 608.5,594.7 608.5,570.4 					"/>
					<path d="M608.5,596.9c-0.5,0-1-0.2-1.4-0.5c-0.5-0.4-0.8-1-0.8-1.7v-24.3c0-1.1,0.8-2,1.8-2.2l33.8-5.9
						c0.6-0.1,1.3,0.1,1.8,0.5c0.5,0.4,0.8,1,0.8,1.7V589c0,1.1-0.8,2-1.8,2.2l-33.8,5.7C608.7,596.9,608.6,596.9,608.5,596.9z
						 M610.7,572.2v19.8l29.4-5v-20L610.7,572.2z"/>
				</g>
			</g>
		</g>
		<g>
			<g>
				<polygon class="st1" points="1072.7,497.9 1201.5,520.3 1330.3,497.9 1200.1,475.2 				"/>
				<path d="M1201.5,522.5c-0.1,0-0.3,0-0.4,0l-128.8-22.4c-1.1-0.2-1.8-1.1-1.8-2.2c0-1.1,0.8-2,1.8-2.2l127.4-22.7
					c0.3,0,0.5,0,0.8,0l130.2,22.6c1.1,0.2,1.8,1.1,1.8,2.2s-0.8,2-1.8,2.2l-128.7,22.4C1201.8,522.5,1201.7,522.5,1201.5,522.5z
					 M1085.4,497.9l116.1,20.2l115.9-20.2l-117.3-20.4L1085.4,497.9z"/>
			</g>
			<g>
				<g>
					<polygon class="st1" points="1201.5,709.9 1201.5,520.1 1072.2,497.8 1072.2,687.1 					"/>
					<path d="M1201.5,712.1c-0.1,0-0.3,0-0.4,0l-129.3-22.8c-1.1-0.2-1.8-1.1-1.8-2.2V497.8c0-0.6,0.3-1.3,0.8-1.7
						c0.5-0.4,1.2-0.6,1.8-0.5l129.3,22.3c1.1,0.2,1.8,1.1,1.8,2.2v189.8c0,0.7-0.3,1.3-0.8,1.7C1202.5,712,1202,712.1,1201.5,712.1
						z M1074.4,685.3l124.9,22V522l-124.9-21.5V685.3z"/>
				</g>
			</g>
			<g>
				<polygon points="1201.5,709.9 1201.5,520.1 1329.7,497.8 1329.7,687.3 				"/>
			</g>
		</g>
		<g>
			<g>
				<polygon class="st1" points="1420.2,1544.9 1792.4,1609.6 2164.2,1544.9 1788.1,1479.4 				"/>
				<g>
					<polygon class="st1" points="1564.7,1518.3 1936.8,1582.9 2020.3,1569.6 1644.2,1504.2 					"/>
					<path d="M1936.8,1585.1c-0.1,0-0.3,0-0.4,0l-372.2-64.6c-1.1-0.2-1.8-1.1-1.8-2.2c0-1.1,0.8-2,1.8-2.2l79.5-14.1
						c0.3,0,0.5,0,0.8,0l376.1,65.4c1.1,0.2,1.8,1.1,1.8,2.2c0,1.1-0.8,2-1.9,2.2l-83.4,13.3
						C1937.1,1585.1,1936.9,1585.1,1936.8,1585.1z M1577.4,1518.3l359.5,62.4l70.1-11.2l-362.7-63.1L1577.4,1518.3z"/>
				</g>
				<g>
					<g>
						<polygon class="st1" points="1792.3,2157.4 1792.3,1609 1418.7,1544.7 1418.7,2091.6 						"/>
						<path d="M1792.3,2159.6c-0.1,0-0.3,0-0.4,0l-373.6-65.8c-1.1-0.2-1.8-1.1-1.8-2.2v-546.8c0-0.6,0.3-1.3,0.8-1.7
							c0.5-0.4,1.2-0.6,1.8-0.5l373.6,64.3c1.1,0.2,1.8,1.1,1.8,2.2v548.3c0,0.6-0.3,1.3-0.8,1.7
							C1793.3,2159.4,1792.8,2159.6,1792.3,2159.6z M1420.9,2089.7l369.2,65.1v-543.9l-369.2-63.6V2089.7z"/>
					</g>
					<g>
						<path d="M1725,2014.5c-0.1,0-0.3,0-0.4,0l-241.5-43c-1.1-0.2-1.8-1.1-1.8-2.2v-261.2c0-0.7,0.3-1.3,0.8-1.7
							c0.5-0.4,1.2-0.6,1.8-0.5l241.5,42c1.1,0.2,1.8,1.1,1.8,2.2v262.1c0,0.7-0.3,1.3-0.8,1.7
							C1726,2014.3,1725.5,2014.5,1725,2014.5z M1485.7,1967.4l237.1,42.2V1752l-237.1-41.2V1967.4z"/>
						<g>
							<g>
								<path d="M1582.8,1965.6c-0.2,0-0.3,0-0.4,0c-8.8-0.2-17.1-4-23.3-10.5c-6.4-6.7-9.9-15.6-9.9-25.1l0-5.6
									c0-5.7,4.5-10.3,10.1-10.3c2.8,0,5.3,1.1,7.3,3.1c1.8,1.9,2.9,4.5,2.9,7.2l0,5.8c0,4,1.5,7.7,4.1,10.5
									c2.6,2.7,6,4.2,9.6,4.2c0.1,0,0.2,0,0.3,0c3.4,0,6.7-1.5,9.2-4.2c2.6-2.8,4.1-6.5,4.1-10.5l0.1-163.2c0-3,1.2-5.8,3.4-7.8
									c2.1-1.9,4.9-2.8,7.7-2.5c5.1,0.5,9.1,5.1,9.1,10.5V1930c0,9.5-3.5,18.4-9.9,25.1c-6.3,6.6-14.6,10.3-23.5,10.5l-0.4-2.2
									l0,2.2L1582.8,1965.6z M1559.2,1918.5c-3.1,0-5.7,2.7-5.7,5.9l0,5.6c0,8.3,3.1,16.2,8.7,22.1c5.4,5.7,12.7,9,20.3,9.2
									l0.2,2.2l0-2.2l0.2,0c0,0,0.2,0,0.2,0c7.8-0.2,15.1-3.4,20.5-9.2c5.6-5.9,8.7-13.7,8.7-22.1v-162.8c0-3.1-2.3-5.8-5.1-6.1
									c-1.6-0.2-3.1,0.4-4.3,1.4c-1.3,1.1-2,2.8-2,4.5l-0.1,163.2c0,5.1-1.9,9.9-5.3,13.5c-3.4,3.5-7.8,5.5-12.6,5.6
									c-4.9,0-9.5-2-12.9-5.6c-3.4-3.6-5.3-8.4-5.3-13.5l0-5.8c0-1.6-0.6-3.1-1.6-4.2C1562.2,1919.1,1560.8,1918.5,1559.2,1918.5z
									"/>
							</g>
							<g>
								<path class="st1" d="M1527.3,1845.7c-4.9-0.8-8.1-5.7-6.8-10.6c11.2-42.7,49.1-55.9,89.4-49c38.8,6.7,68.1,36.7,77.9,74.6
									c1.6,6-3.5,11.7-9.7,10.7L1527.3,1845.7z"/>
								<path d="M1679.6,1873.7c-0.6,0-1.2-0.1-1.8-0.2l-150.8-25.7c-3-0.5-5.6-2.2-7.2-4.8c-1.6-2.5-2.1-5.6-1.4-8.5
									c10.5-39.8,44.8-58.7,91.9-50.6c38.1,6.6,69.4,36.5,79.7,76.2c0.9,3.6,0,7.4-2.5,10.1
									C1685.4,1872.5,1682.5,1873.7,1679.6,1873.7z M1589.8,1786.5c-34.4,0-58.9,17.5-67.2,49.2c-0.5,1.7-0.2,3.5,0.8,5
									c1,1.5,2.5,2.5,4.3,2.8l150.8,25.7c2.1,0.4,4.2-0.3,5.7-1.9c1.5-1.6,2-3.9,1.5-6c-9.8-38.1-39.7-66.7-76.2-73
									C1602.6,1787.1,1596.1,1786.5,1589.8,1786.5z"/>
							</g>
						</g>
					</g>
				</g>
				<g>
					<polygon points="1792.3,2157.4 1792.3,1609 2162.7,1544.6 2162.7,2091.9 					"/>
					<g>
						<g>
							<polygon class="st1" points="1861.5,2012.3 1861.5,1750.1 2103,1708.1 2103,1969.3 							"/>
							<path d="M1861.5,2014.5c-0.5,0-1-0.2-1.4-0.5c-0.5-0.4-0.8-1-0.8-1.7v-262.1c0-1.1,0.8-2,1.8-2.2l241.5-42
								c0.6-0.1,1.3,0.1,1.8,0.5c0.5,0.4,0.8,1,0.8,1.7v261.2c0,1.1-0.8,2-1.8,2.2l-241.5,43
								C1861.8,2014.4,1861.6,2014.5,1861.5,2014.5z M1863.7,1752v257.7l237.1-42.2v-256.7L1863.7,1752z"/>
						</g>
						<g>
							<g>
								<g>
									<g>
										<path d="M1890.9,1976.6c-0.5,0-1-0.2-1.4-0.5c-0.5-0.4-0.8-1-0.8-1.7V1935c0-1.1,0.8-2,1.8-2.2l182.8-31.8
											c0.7-0.1,1.3,0.1,1.8,0.5c0.5,0.4,0.8,1,0.8,1.7v40.3c0,1.1-0.8,2-1.8,2.2l-182.8,30.9
											C1891.1,1976.6,1891,1976.6,1890.9,1976.6z M1893.1,1936.8v35l178.4-30.2v-35.8L1893.1,1936.8z"/>
									</g>
								</g>
							</g>
							<g>
								<g>
									<g>
										<polygon class="st1" points="2020.8,1572.6 2020.8,1628.4 1943.7,1641.4 1943.7,1586 										"/>
										<path d="M1943.7,1643.6c-0.5,0-1-0.2-1.4-0.5c-0.5-0.4-0.8-1-0.8-1.7V1586c0-1.1,0.8-2,1.8-2.2l77.1-13.4
											c0.7-0.1,1.3,0.1,1.8,0.5c0.5,0.4,0.8,1,0.8,1.7v55.8c0,1.1-0.8,2-1.8,2.2l-77.1,13
											C1944,1643.6,1943.8,1643.6,1943.7,1643.6z M1945.9,1587.9v50.9l72.7-12.3v-51.3L1945.9,1587.9z"/>
									</g>
								</g>
							</g>
							<g>
								<g>
									<g>
										<g>
											<path d="M1919.2,1909c-0.5,0-1-0.2-1.4-0.5c-0.5-0.4-0.8-1-0.8-1.7V1814l-16.9,3c-0.9,0.2-1.8-0.2-2.2-1
												c-0.5-0.8-0.5-1.7,0.1-2.4l37.7-53.9c0.4-0.5,1-0.9,1.7-0.9c0.7,0,1.3,0.2,1.8,0.7l37.5,40.7c0.5,0.6,0.7,1.4,0.5,2.2
												c-0.3,0.8-0.9,1.3-1.7,1.5l-17.4,3v93.7c0,1.1-0.8,2-1.8,2.2l-36.5,6.2C1919.4,1909,1919.3,1909,1919.2,1909z
												 M1919.2,1809.2c0.5,0,1,0.2,1.4,0.5c0.5,0.4,0.8,1,0.8,1.7v92.8l32.1-5.4v-93.7c0-1.1,0.8-2,1.8-2.2l15.3-2.7
												l-32.9-35.7l-33.1,47.3l14.2-2.5C1918.9,1809.2,1919,1809.2,1919.2,1809.2z"/>
										</g>
									</g>
								</g>
								<g>
									<g>
										<g>
											<path d="M2009,1893.9c-0.5,0-1-0.2-1.4-0.5c-0.5-0.4-0.8-1-0.8-1.7V1799l-16.9,3c-0.9,0.2-1.8-0.2-2.2-1
												c-0.5-0.8-0.5-1.7,0.1-2.4l37.7-53.9c0.4-0.5,1-0.9,1.7-0.9c0.7-0.1,1.3,0.2,1.8,0.7l37.5,40.7c0.5,0.6,0.7,1.4,0.5,2.2
												c-0.3,0.8-0.9,1.3-1.7,1.5l-17.4,3v93.7c0,1.1-0.8,2-1.8,2.2l-36.5,6.2C2009.3,1893.9,2009.2,1893.9,2009,1893.9z
												 M2009,1794.2c0.5,0,1,0.2,1.4,0.5c0.5,0.4,0.8,1,0.8,1.7v92.8l32.1-5.4V1790c0-1.1,0.8-2,1.8-2.2l15.3-2.7l-32.9-35.7
												l-33.1,47.3l14.2-2.5C2008.8,1794.2,2008.9,1794.2,2009,1794.2z"/>
										</g>
									</g>
								</g>
							</g>
						</g>
					</g>
				</g>
				<path d="M1792.4,1611.8c-0.1,0-0.3,0-0.4,0l-372.2-64.6c-1.1-0.2-1.8-1.1-1.8-2.2c0-1.1,0.8-2,1.8-2.2l367.9-65.5
					c0.3,0,0.5,0,0.8,0l376.1,65.4c1.1,0.2,1.8,1.1,1.8,2.2c0,1.1-0.8,2-1.8,2.2l-371.8,64.7
					C1792.6,1611.8,1792.5,1611.8,1792.4,1611.8z M1432.9,1544.9l359.5,62.4l359-62.5l-363.2-63.2L1432.9,1544.9z"/>
			</g>
			<g>
				<g>
					<path d="M1622.3,1314.8c-3.9,0-7.8-1.3-11.1-3.9c-7.5-6.1-8.7-17.2-2.6-24.7c45.1-55.5,111.9-87.3,183.3-87.3
						c70.7,0,137,31.3,182.1,85.8c6.2,7.5,5.1,18.6-2.4,24.8c-7.5,6.2-18.6,5.1-24.8-2.4c-38.3-46.4-94.8-73.1-154.9-73.1
						c-60.8,0-117.6,27.1-156,74.3C1632.5,1312.6,1627.5,1314.8,1622.3,1314.8z"/>
				</g>
				<g>
					<path d="M1680,1361.7c-3.9,0-7.8-1.3-11.1-3.9c-7.5-6.1-8.7-17.2-2.6-24.7c30.9-38.1,76.7-59.9,125.7-59.9
						c48.4,0,93.9,21.4,124.8,58.8c6.2,7.5,5.1,18.6-2.4,24.8c-7.5,6.2-18.6,5.1-24.8-2.4c-24.2-29.2-59.7-46-97.6-46
						c-38.3,0-74.2,17.1-98.4,46.9C1690.2,1359.4,1685.1,1361.7,1680,1361.7z"/>
				</g>
				<g>
					<path d="M1735,1406.5c-3.9,0-7.8-1.3-11-3.9c-7.6-6.1-8.7-17.2-2.6-24.7c17.3-21.5,43.1-33.8,70.7-33.8
						c27,0,52.5,11.9,69.8,32.7c6.2,7.5,5.2,18.6-2.3,24.8c-7.5,6.2-18.6,5.2-24.8-2.3c-10.6-12.7-26.2-20-42.8-20
						c-16.9,0-32.7,7.5-43.3,20.7C1745.2,1404.2,1740.1,1406.5,1735,1406.5z"/>
				</g>
				<g>
					<ellipse cx="1790.7" cy="1435.1" rx="20.3" ry="20.3"/>
				</g>
			</g>
		</g>
		<g>
			<g>
				<path class="st1" d="M1366.8,1183.3l-275.8,48.2l-273.6-47.9c-0.4-0.1-0.4-0.6,0-0.7l276.8-48.5L1366.8,1183.3z"/>
				<g>
					<polygon class="st1" points="989,1153.5 1257.2,1201.9 1197,1212.4 928.6,1163.9 					"/>
					<path d="M1197,1214.7c-0.1,0-0.3,0-0.4,0l-268.4-48.5c-1.1-0.2-1.8-1.1-1.8-2.2c0-1.1,0.8-2,1.8-2.2l60.4-10.4
						c0.3,0,0.5,0,0.8,0l268.2,48.4c1,0.2,1.8,1.1,1.8,2.2s-0.8,2-1.8,2.2l-60.2,10.5C1197.2,1214.6,1197.1,1214.7,1197,1214.7z
						 M941.3,1164l255.7,46.2l47.6-8.3L989,1155.7L941.3,1164z"/>
				</g>
				<g>
					<polygon points="1091,1640.2 1091,1231.1 1368,1183.1 1368,1591.1 					"/>
					<g>
						<polygon class="st1" points="1199.3,1257.4 1199.3,1212 1259.7,1201.5 1259.7,1246.7 						"/>
						<path d="M1199.3,1259.6c-0.5,0-1-0.2-1.4-0.5c-0.5-0.4-0.8-1-0.8-1.7V1212c0-1.1,0.8-2,1.8-2.2l60.3-10.5
							c0.6-0.1,1.3,0.1,1.8,0.5c0.5,0.4,0.8,1,0.8,1.7v45.2c0,1.1-0.8,2-1.8,2.2l-60.3,10.7
							C1199.6,1259.6,1199.5,1259.6,1199.3,1259.6z M1201.5,1213.8v41l55.9-9.9v-40.8L1201.5,1213.8z"/>
					</g>
					<path d="M1091,1642.4c-0.5,0-1-0.2-1.4-0.5c-0.5-0.4-0.8-1-0.8-1.7v-409.1c0-1.1,0.8-2,1.8-2.2l276.9-48
						c0.6-0.1,1.3,0.1,1.8,0.5c0.5,0.4,0.8,1,0.8,1.7v408c0,1.1-0.8,2-1.8,2.2l-276.9,49.1C1091.3,1642.4,1091.2,1642.4,1091,1642.4
						z M1093.2,1232.9v404.6l272.5-48.3v-403.5L1093.2,1232.9z"/>
					<g>
						<polygon class="st1" points="1140.9,1485.3 1140.9,1289.8 1319.9,1258.4 1319.9,1453.3 						"/>
						<g>
							<g>
								<path d="M1214.8,1452.2c-0.1,0-0.3,0-0.4,0c-6.6-0.2-12.9-3-17.6-8c-4.8-5.1-7.5-11.9-7.5-19.1l0-4.2c0-4.6,3.6-8.3,8.1-8.3
									c2.2,0,4.3,0.9,5.8,2.5c1.5,1.6,2.3,3.6,2.3,5.8l0,4.3c0,2.8,1,5.5,2.9,7.4c1.8,1.9,4.2,3,6.7,3c0,0,0.1,0,0.1,0
									c2.4,0,4.8-1.1,6.5-2.9c1.9-2,2.9-4.6,2.9-7.4l0-121.8c0-2.4,1-4.6,2.7-6.2c1.7-1.5,3.9-2.3,6.2-2c4.1,0.4,7.3,4.1,7.3,8.4
									V1425c0,7.2-2.7,14-7.5,19.1c-4.8,5-11.1,7.9-17.9,8l-0.3-2.2l0.1,2.2L1214.8,1452.2z M1197.3,1417c-2,0-3.7,1.7-3.7,3.9
									l0,4.2c0,6.1,2.2,11.8,6.3,16.1c3.9,4.2,9.1,6.5,14.7,6.7l0.2,2.2l0-2.2l0.2,0c0,0,0.3,0,0.3,0c5.6-0.1,10.8-2.5,14.7-6.7
									c4.1-4.3,6.3-10,6.3-16.1v-121.5c0-2-1.5-3.8-3.3-4c-1-0.1-2,0.2-2.8,0.9c-0.8,0.7-1.3,1.8-1.3,2.9l0,121.8
									c0,4-1.5,7.7-4.1,10.5c-2.6,2.7-6,4.3-9.7,4.3c-0.1,0-0.2,0-0.2,0c0,0,0,0,0,0c-3.6,0-7.1-1.5-9.7-4.3
									c-2.6-2.8-4.1-6.5-4.1-10.5l0-4.3c0-1-0.4-2-1.1-2.7C1199.2,1417.4,1198.3,1417,1197.3,1417z"/>
							</g>
							<g>
								<path class="st1" d="M1287.4,1361.1c3.7-0.6,6-4.3,5.1-7.9c-8.3-31.9-36.4-41.7-66.3-36.6c-28.8,5-50.5,27.4-57.8,55.7
									c-1.2,4.5,2.6,8.7,7.2,8L1287.4,1361.1z"/>
								<path d="M1174.6,1382.5c-2.3,0-4.6-1-6.2-2.7c-2-2.2-2.8-5.2-2-8.1c7.7-29.9,31-52.3,59.5-57.3c35.2-6.1,60.9,8.2,68.8,38.2
									c0.6,2.3,0.2,4.8-1.1,6.8c-1.3,2-3.4,3.4-5.7,3.8l-111.8,19.2C1175.6,1382.5,1175.1,1382.5,1174.6,1382.5z M1241.1,1317.5
									c-4.6,0-9.4,0.4-14.5,1.3c-26.8,4.6-48.8,25.9-56,54c-0.4,1.4,0,2.9,1,4c1,1,2.3,1.5,3.7,1.3l111.8-19.2
									c1.2-0.2,2.1-0.9,2.8-1.8c0.6-1,0.8-2.2,0.5-3.3C1284.3,1330.4,1266.3,1317.5,1241.1,1317.5z M1287.4,1361.1L1287.4,1361.1
									L1287.4,1361.1z"/>
							</g>
						</g>
					</g>
				</g>
				<g>
					<g>
						<polygon class="st1" points="1091,1640.2 1091,1231.1 816.5,1183 816.5,1591.3 						"/>
						<path d="M1091,1642.4c-0.1,0-0.3,0-0.4,0l-274.5-48.9c-1-0.2-1.8-1.1-1.8-2.2V1183c0-0.7,0.3-1.3,0.8-1.7
							c0.5-0.4,1.2-0.6,1.8-0.5l274.5,48.1c1.1,0.2,1.8,1.1,1.8,2.2v409.1c0,0.7-0.3,1.3-0.8,1.7
							C1092.1,1642.2,1091.5,1642.4,1091,1642.4z M818.7,1589.5l270.1,48.1v-404.6l-270.1-47.3L818.7,1589.5L818.7,1589.5z"/>
					</g>
					<path d="M1091,1642.4c-0.1,0-0.3,0-0.4,0l-274.5-48.9c-1-0.2-1.8-1.1-1.8-2.2V1183c0-0.7,0.3-1.3,0.8-1.7
						c0.5-0.4,1.2-0.6,1.8-0.5l274.5,48.1c1.1,0.2,1.8,1.1,1.8,2.2v409.1c0,0.7-0.3,1.3-0.8,1.7
						C1092.1,1642.2,1091.5,1642.4,1091,1642.4z M818.7,1589.5l270.1,48.1v-404.6l-270.1-47.3L818.7,1589.5L818.7,1589.5z"/>
					<g>
						<g>
							<g>
								<path d="M1018,1459.3c-0.1,0-0.2,0-0.4,0l-135.5-23.1c-1.1-0.2-1.8-1.1-1.8-2.2v-30.1c0-0.7,0.3-1.3,0.8-1.7
									c0.5-0.4,1.2-0.6,1.8-0.5l135.5,23.7c1.1,0.2,1.8,1.1,1.8,2.2v29.4c0,0.6-0.3,1.3-0.8,1.7
									C1019,1459.1,1018.5,1459.3,1018,1459.3z M884.7,1432.2l131.1,22.3v-25l-131.1-23V1432.2z"/>
							</g>
							<g>
								<g>
									<g>
										<g>
											<path d="M997,1408.9c-0.1,0-0.2,0-0.4,0l-27.1-4.6c-1.1-0.2-1.8-1.1-1.8-2.2v-69.4l-12.5-2.2c-0.8-0.1-1.4-0.7-1.7-1.5
												c-0.3-0.8-0.1-1.6,0.5-2.2l27.8-30.4c0.5-0.5,1.1-0.7,1.8-0.7c0.7,0,1.3,0.4,1.7,0.9l28,40.2c0.5,0.7,0.5,1.7,0,2.4
												c-0.5,0.7-1.4,1.1-2.2,1l-11.9-2.1v68.5c0,0.6-0.3,1.3-0.8,1.7C998,1408.7,997.5,1408.9,997,1408.9z M972.1,1400.2
												l22.7,3.9v-68.6c0-0.7,0.3-1.3,0.8-1.7c0.5-0.4,1.2-0.6,1.8-0.5l9.2,1.6l-23.4-33.6l-23.2,25.4l10.3,1.8
												c1.1,0.2,1.8,1.1,1.8,2.2L972.1,1400.2L972.1,1400.2z"/>
										</g>
									</g>
								</g>
								<g>
									<g>
										<g>
											<path d="M930.4,1397.6c-0.1,0-0.2,0-0.4,0L903,1393c-1.1-0.2-1.8-1.1-1.8-2.2v-69.4l-12.5-2.2c-0.8-0.1-1.4-0.7-1.7-1.5
												c-0.3-0.8-0.1-1.6,0.5-2.2l27.8-30.4c0.5-0.5,1.1-0.8,1.8-0.7c0.7,0,1.3,0.4,1.7,0.9l28,40.2c0.5,0.7,0.5,1.7,0,2.4
												c-0.5,0.7-1.4,1.1-2.2,1l-11.9-2.1v68.5c0,0.6-0.3,1.3-0.8,1.7C931.4,1397.4,930.9,1397.6,930.4,1397.6z M905.5,1389
												l22.6,3.9v-68.6c0-0.7,0.3-1.3,0.8-1.7c0.5-0.4,1.2-0.6,1.8-0.5l9.2,1.6l-23.4-33.6l-23.2,25.4l10.3,1.8
												c1.1,0.2,1.8,1.1,1.8,2.2L905.5,1389L905.5,1389z"/>
										</g>
									</g>
								</g>
							</g>
						</g>
						<path d="M1039.7,1487.5c-0.1,0-0.3,0-0.4,0l-179-32.1c-1-0.2-1.8-1.1-1.8-2.2v-194.8c0-0.7,0.3-1.3,0.8-1.7
							c0.5-0.4,1.2-0.6,1.8-0.5l179,31.3c1.1,0.2,1.8,1.1,1.8,2.2v195.6c0,0.7-0.3,1.3-0.8,1.7
							C1040.8,1487.4,1040.3,1487.5,1039.7,1487.5z M862.9,1451.4l174.6,31.3v-191.1L862.9,1261V1451.4z"/>
					</g>
				</g>
				<path d="M1091,1233.7c-0.1,0-0.3,0-0.4,0L817,1185.7c-1.2-0.2-2.1-1.3-2.1-2.5c0-1.2,0.9-2.3,2.1-2.5l276.8-48.5
					c0.3,0,0.5,0,0.8,0l272.7,48.9c1.1,0.2,1.8,1.1,1.8,2.2c0,1.1-0.8,2-1.8,2.2l-275.8,48.2
					C1091.2,1233.7,1091.1,1233.7,1091,1233.7z M828.1,1183.2l262.9,46.1l263.2-46l-260.1-46.6L828.1,1183.2z"/>
			</g>
			<g>
				<g>
					<path d="M945,997c-3.4,0-6.8-1.1-9.6-3.4c-6.6-5.3-7.6-15-2.2-21.5c39.3-48.3,97.4-76,159.6-76c61.5,0,119.3,27.2,158.6,74.7
						c5.4,6.5,4.5,16.2-2.1,21.6c-6.5,5.4-16.2,4.5-21.6-2.1c-33.4-40.4-82.6-63.6-134.9-63.6c-52.9,0-102.4,23.6-135.8,64.7
						C953.9,995.1,949.4,997,945,997z"/>
				</g>
				<g>
					<path d="M995.2,1037.8c-3.4,0-6.8-1.1-9.6-3.4c-6.6-5.3-7.6-15-2.2-21.5c26.9-33.2,66.8-52.2,109.4-52.2
						c42.2,0,81.8,18.7,108.7,51.2c5.4,6.5,4.5,16.2-2.1,21.6c-6.5,5.4-16.2,4.5-21.6-2.1c-21-25.5-52-40.1-85-40.1
						c-33.4,0-64.6,14.9-85.7,40.8C1004,1035.8,999.6,1037.8,995.2,1037.8z"/>
				</g>
				<g>
					<path d="M1043.1,1076.8c-3.4,0-6.8-1.1-9.6-3.4c-6.6-5.3-7.6-15-2.3-21.5c15.1-18.7,37.5-29.4,61.5-29.4
						c23.5,0,45.7,10.4,60.8,28.5c5.4,6.5,4.5,16.2-2,21.6c-6.5,5.4-16.2,4.5-21.6-2c-9.2-11.1-22.8-17.5-37.2-17.5
						c-14.7,0-28.4,6.6-37.7,18C1052,1074.8,1047.6,1076.8,1043.1,1076.8z"/>
				</g>
				<g>
					<ellipse cx="1091.6" cy="1101.7" rx="17.7" ry="17.7"/>
				</g>
			</g>
		</g>
		<g>
			<g>
				<path class="st1" d="M892.2,1839.3l-20.1-9.8c-3.2-1.6-5.3-4.9-5.3-8.4c0.1-3.8,0-7.5-0.3-11.3c-0.2-3.6,1.7-6.9,4.8-8.7
					l19.5-10.8c3.8-2.1,5.7-6.6,4.4-10.8l-5.1-17c-1.2-4.2-5.3-7-9.7-6.7l-22.4,1.5c-3.6,0.2-7.1-1.6-8.8-4.7
					c-1.8-3.2-3.8-6.4-5.9-9.5c-2-3-2.1-6.9-0.2-9.9l11.5-19.1c2.3-3.8,1.6-8.5-1.6-11.6l-13-12.2c-3.2-3-8.1-3.4-11.7-1l-18.6,12.3
					c-3,2-6.9,2.1-10,0.3c-3.2-1.9-6.5-3.7-9.9-5.3c-3.3-1.6-5.3-4.9-5.3-8.5l0.3-22.2c0.1-4.4-2.9-8.2-7.2-9.2l-17.4-4.1
					c-4.3-1-8.7,1-10.7,5l-9.9,19.9c-1.6,3.2-4.9,5.3-8.5,5.2c-3.8-0.1-7.6,0-11.4,0.3c-3.6,0.2-7-1.6-8.8-4.8l-10.9-19.3
					c-2.1-3.8-6.7-5.6-10.9-4.4l-17.2,5c-4.2,1.2-7,5.2-6.7,9.6l1.5,22.2c0.2,3.6-1.6,7-4.7,8.7c-3.3,1.8-6.5,3.8-9.7,5.9
					c-3,2-6.9,2-10,0.2l-19.3-11.4c-3.8-2.2-8.6-1.6-11.7,1.6l-12.3,12.9c-3,3.2-3.4,8-1,11.6l12.4,18.4c2,3,2.1,6.9,0.3,9.9
					c-1.9,3.2-3.7,6.5-5.4,9.8c-1.6,3.2-4.9,5.3-8.6,5.2l-22.4-0.3c-4.4-0.1-8.3,2.9-9.3,7.2l-4.2,17.3c-1,4.2,1,8.6,5,10.6
					l20.1,9.8c3.2,1.6,5.3,4.9,5.3,8.4c-0.1,3.8,0,7.5,0.3,11.3c0.2,3.6-1.7,6.9-4.8,8.7l-19.5,10.8c-3.8,2.1-5.7,6.6-4.4,10.8
					l5.1,17c1.2,4.2,5.3,7,9.7,6.7l22.4-1.5c3.6-0.2,7,1.6,8.8,4.7c1.8,3.3,3.8,6.5,5.9,9.6c2,3,2.1,6.8,0.2,9.9l-11.5,19.1
					c-2.3,3.8-1.6,8.5,1.6,11.6l13,12.2c3.2,3,8.1,3.4,11.7,1l18.6-12.3c3-2,6.9-2.1,10-0.3c3.2,1.9,6.5,3.7,9.9,5.3
					c3.3,1.6,5.3,4.9,5.3,8.5l-0.3,22.2c-0.1,4.4,2.9,8.2,7.2,9.2l17.4,4.1c4.3,1,8.7-1,10.7-5l9.9-19.9c1.6-3.2,4.9-5.3,8.5-5.2
					c3.8,0.1,7.6,0,11.4-0.3c3.6-0.2,7,1.6,8.8,4.8l10.9,19.3c2.1,3.8,6.7,5.6,10.9,4.4l17.2-5c4.2-1.2,7-5.2,6.7-9.6l-1.5-22.2
					c-0.2-3.6,1.6-7,4.8-8.7c3.3-1.8,6.5-3.8,9.6-5.8c3-2,6.9-2.1,10-0.2l19.3,11.4c3.8,2.2,8.6,1.6,11.7-1.6l12.3-12.9
					c3-3.2,3.4-8,1-11.6l-12.4-18.4c-2-3-2.1-6.9-0.3-9.9c1.9-3.2,3.7-6.5,5.4-9.8c1.6-3.2,4.9-5.3,8.6-5.2l22.4,0.3
					c4.4,0.1,8.3-2.9,9.3-7.2l4.2-17.3C898.3,1845.6,896.2,1841.2,892.2,1839.3z M730.8,1895.3c-42.5,0.9-77.7-32.5-78.6-74.6
					s32.8-77,75.3-77.9c42.5-0.9,77.7,32.5,78.6,74.6C807,1859.5,773.3,1894.4,730.8,1895.3z"/>
				<path d="M700.2,1988.1c-0.9,0-1.8-0.1-2.7-0.3l-17.4-4.1c-5.3-1.3-9-5.9-8.9-11.4l0.3-22.2c0-2.7-1.5-5.3-4-6.5
					c-3.5-1.7-6.8-3.5-10.1-5.4c-2.4-1.4-5.4-1.3-7.7,0.2l-18.6,12.3c-4.5,3-10.5,2.5-14.5-1.2l-13-12.2c-4-3.7-4.8-9.6-2-14.3
					l11.5-19.1c1.4-2.4,1.4-5.3-0.2-7.5c-2.1-3.2-4.2-6.4-6-9.8c-1.3-2.4-4-3.8-6.7-3.6l-22.4,1.5c-5.5,0.4-10.4-3-11.9-8.2l-5.1-17
					c-1.6-5.2,0.7-10.7,5.5-13.4l19.5-10.8c2.4-1.3,3.9-3.9,3.7-6.6c-0.3-3.8-0.3-7.6-0.3-11.5c0-2.7-1.5-5.2-4-6.4l-20.1-9.8
					c-4.9-2.4-7.5-7.8-6.2-13.1l4.2-17.3c1.3-5.3,6.1-8.9,11.5-8.8l22.4,0.3c2.7,0.1,5.4-1.5,6.6-4c1.7-3.4,3.5-6.8,5.4-10
					c1.4-2.3,1.3-5.3-0.2-7.6l-12.4-18.4c-3-4.5-2.5-10.4,1.2-14.4l12.3-12.9c3.8-3.9,9.7-4.7,14.4-2l19.3,11.4
					c2.4,1.4,5.4,1.4,7.7-0.2c3.2-2.1,6.5-4.1,9.8-6c2.4-1.3,3.8-3.9,3.6-6.7l-1.5-22.2c-0.4-5.4,3.1-10.3,8.3-11.8l17.2-5
					c5.2-1.5,10.8,0.7,13.4,5.4L713,1677c1.3,2.4,4,3.8,6.7,3.7c3.8-0.2,7.7-0.3,11.6-0.3c2.8,0,5.3-1.5,6.5-4l9.9-19.9
					c2.4-4.9,7.8-7.4,13.1-6.1l17.4,4.1c5.3,1.3,9,5.9,8.9,11.4l-0.3,22.2c0,2.7,1.5,5.3,4,6.5c3.4,1.7,6.8,3.5,10.1,5.4
					c2.4,1.4,5.4,1.3,7.7-0.2l18.6-12.3c4.5-3,10.5-2.5,14.5,1.2l13,12.2c4,3.7,4.8,9.6,2,14.3l-11.5,19.1c-1.4,2.3-1.3,5.3,0.2,7.6
					c2.1,3.1,4.1,6.4,6,9.7c1.3,2.4,4,3.8,6.8,3.6l22.4-1.5c5.5-0.4,10.4,3,11.9,8.2l5.1,17c1.6,5.2-0.7,10.7-5.5,13.4l-19.5,10.8
					c-2.4,1.3-3.9,3.9-3.7,6.6c0.2,3.8,0.3,7.6,0.3,11.5c0,2.7,1.5,5.2,4,6.4l20.1,9.8c4.9,2.4,7.5,7.8,6.2,13.1l-4.2,17.3
					c-1.3,5.2-5.9,8.8-11.3,8.8c-0.1,0-0.1,0-0.2,0l-22.4-0.3c-2.8-0.1-5.4,1.5-6.6,4c-1.7,3.4-3.5,6.8-5.5,10
					c-1.4,2.3-1.3,5.3,0.2,7.6l12.4,18.4c3,4.5,2.5,10.4-1.2,14.4l-12.3,12.9c-3.8,3.9-9.7,4.7-14.4,2l-19.3-11.4
					c-2.4-1.4-5.4-1.3-7.7,0.2c-3.2,2.1-6.4,4.1-9.7,5.9c-2.4,1.3-3.8,3.9-3.7,6.7l1.5,22.2c0.4,5.4-3.1,10.3-8.3,11.8l-17.2,5
					c-5.2,1.5-10.8-0.7-13.4-5.4l-10.9-19.3c-1.4-2.4-4-3.8-6.7-3.6c-3.8,0.2-7.7,0.3-11.6,0.3c-2.7-0.1-5.3,1.5-6.5,4l-9.9,19.9
					C708.6,1985.6,704.6,1988.1,700.2,1988.1z M653.7,1932.7c2,0,4.1,0.5,5.9,1.6c3.1,1.8,6.4,3.6,9.8,5.2c4,1.9,6.6,6.1,6.5,10.5
					l-0.3,22.2c0,3.4,2.2,6.2,5.5,7l17.4,4.1c3.3,0.8,6.7-0.8,8.2-3.8l9.9-19.9c2-4,6-6.5,10.5-6.4c3.7,0.1,7.5,0,11.2-0.3
					c4.4-0.3,8.6,2,10.8,5.9l10.9,19.3c1.7,2.9,5.1,4.3,8.4,3.4l17.2-5c3.3-1,5.4-4,5.2-7.3l-1.5-22.2c-0.3-4.4,2-8.7,5.9-10.8
					c3.2-1.8,6.4-3.7,9.4-5.7c3.7-2.4,8.5-2.6,12.4-0.3l19.3,11.4c2.9,1.7,6.6,1.2,9-1.2l12.3-12.9c2.3-2.4,2.6-6.1,0.8-8.9
					l-12.4-18.4c-2.5-3.7-2.6-8.5-0.3-12.3c1.9-3.1,3.6-6.4,5.3-9.7c2-4,6.1-6.5,10.6-6.4l22.4,0.3c3.3,0.1,6.3-2.2,7.1-5.5
					l4.2-17.3c0.8-3.3-0.8-6.6-3.8-8.1l-20.1-9.8c-4-2-6.6-6.1-6.5-10.5c0.1-3.7,0-7.5-0.3-11.1c-0.3-4.4,2-8.6,5.9-10.7l19.5-10.8
					c3-1.6,4.4-5,3.4-8.2l-5.1-17c-1-3.2-4-5.3-7.4-5.1l-22.4,1.5c-4.5,0.3-8.7-2-10.9-5.9c-1.8-3.2-3.7-6.3-5.8-9.3
					c-2.5-3.7-2.6-8.5-0.3-12.3l11.5-19.1c1.7-2.9,1.2-6.5-1.2-8.8l-13-12.2c-2.5-2.3-6.2-2.6-9-0.8l-18.6,12.3
					c-3.7,2.5-8.5,2.6-12.4,0.3c-3.1-1.8-6.4-3.6-9.8-5.2c-4-1.9-6.6-6.1-6.5-10.5l0.3-22.2c0-3.4-2.2-6.2-5.5-7l-17.4-4.1
					c-3.3-0.8-6.7,0.8-8.2,3.8l-9.9,19.9c-2,4-6,6.6-10.5,6.4c-3.7-0.1-7.5,0-11.2,0.3c-4.4,0.3-8.6-2-10.8-5.9l-10.9-19.3
					c-1.7-2.9-5.1-4.3-8.4-3.4l-17.2,5c-3.3,1-5.4,4-5.2,7.3l1.5,22.2c0.3,4.4-2,8.7-5.9,10.8c-3.2,1.8-6.5,3.7-9.5,5.8
					c-3.7,2.4-8.5,2.5-12.3,0.3l-19.3-11.4c-2.9-1.7-6.6-1.2-8.9,1.2l-12.3,12.9c-2.3,2.4-2.6,6.1-0.8,8.9l12.4,18.4
					c2.5,3.7,2.6,8.5,0.3,12.3c-1.9,3.1-3.7,6.4-5.3,9.7c-1.9,3.9-6,6.4-10.4,6.4c-0.1,0-0.1,0-0.2,0l-22.4-0.3
					c-3.4-0.1-6.3,2.2-7.1,5.5l-4.2,17.3c-0.8,3.3,0.8,6.6,3.8,8.1l20.1,9.8c4,2,6.6,6.1,6.5,10.5c-0.1,3.7,0,7.4,0.3,11.1
					c0.3,4.4-2,8.6-5.9,10.7l-19.5,10.8c-3,1.6-4.4,5-3.4,8.2l5.1,17c1,3.2,4,5.3,7.4,5.1l22.4-1.5c4.4-0.3,8.7,2,10.9,5.8
					c1.8,3.2,3.8,6.4,5.8,9.4c2.5,3.6,2.6,8.5,0.3,12.3l-11.5,19.1c-1.7,2.9-1.2,6.5,1.2,8.8l13,12.2c2.5,2.3,6.2,2.6,9,0.8
					l18.6-12.3C649.2,1933.4,651.4,1932.7,653.7,1932.7z M729.1,1897.5c-20.5,0-39.9-7.7-54.7-21.8c-15.3-14.5-23.9-34-24.4-55
					c-0.9-43.3,33.8-79.2,77.5-80.2c43.7-0.9,79.9,33.5,80.9,76.8c0.5,21-7.4,40.9-22,56c-14.6,15.1-34.3,23.7-55.5,24.2
					C730.3,1897.5,729.7,1897.5,729.1,1897.5z M729.2,1744.9c-0.5,0-1.1,0-1.6,0c-41.2,0.9-74.1,34.8-73.2,75.7
					c0.4,19.8,8.6,38.2,23,51.9c14.4,13.7,33.3,21,53.3,20.6c20-0.4,38.6-8.5,52.4-22.8c13.8-14.3,21.2-33.1,20.8-52.8
					C803.1,1777.1,769.7,1744.9,729.2,1744.9z"/>
			</g>
			<g>
				<path class="st1" d="M1109.3,1973.5l-15.6-4.9c-2.5-0.8-4.4-2.9-4.7-5.5c-0.4-2.7-0.8-5.4-1.4-8.1c-0.6-2.5,0.4-5.2,2.5-6.8
					l12.9-9.9c2.5-2,3.4-5.4,2-8.3l-5.5-11.7c-1.4-2.9-4.5-4.4-7.7-3.8l-16,3.5c-2.6,0.6-5.3-0.4-6.9-2.5c-1.7-2.1-3.4-4.2-5.3-6.2
					c-1.8-1.9-2.3-4.7-1.3-7.1l6.2-15c1.2-2.9,0.2-6.3-2.4-8.2l-10.7-7.4c-2.6-1.8-6.2-1.6-8.6,0.6L1035,1883
					c-2,1.8-4.8,2.3-7.2,1.3c-2.5-1-5.1-1.9-7.7-2.8c-2.5-0.8-4.4-3-4.7-5.6l-2.2-16c-0.4-3.2-3-5.6-6.2-5.9l-13-1.1
					c-3.2-0.3-6.2,1.7-7.1,4.7l-5,15.4c-0.8,2.5-3,4.3-5.6,4.7c-2.8,0.4-5.5,0.8-8.2,1.4c-2.6,0.6-5.2-0.4-6.8-2.5l-10-12.8
					c-2-2.5-5.4-3.3-8.3-2l-11.9,5.5c-2.9,1.4-4.5,4.5-3.8,7.6l3.5,15.8c0.6,2.5-0.4,5.2-2.5,6.8c-2.2,1.7-4.3,3.4-6.4,5.3
					c-1.9,1.8-4.8,2.2-7.2,1.2l-15.1-6.1c-3-1.2-6.4-0.2-8.2,2.4l-7.5,10.6c-1.8,2.6-1.6,6.1,0.5,8.5l11,11.9
					c1.8,1.9,2.3,4.7,1.3,7.1c-1,2.5-2,5.1-2.8,7.7c-0.8,2.5-3,4.3-5.6,4.7l-16.2,2.2c-3.2,0.4-5.6,3-5.9,6.2l-1.2,12.9
					c-0.3,3.2,1.7,6.1,4.7,7.1l15.6,4.9c2.5,0.8,4.4,2.9,4.7,5.5c0.4,2.7,0.8,5.4,1.4,8.1c0.6,2.5-0.5,5.2-2.5,6.8l-12.9,9.9
					c-2.5,2-3.4,5.4-2,8.3l5.5,11.7c1.4,2.9,4.5,4.4,7.7,3.8l16-3.5c2.6-0.6,5.3,0.4,6.9,2.4c1.7,2.2,3.5,4.3,5.3,6.3
					c1.8,1.9,2.2,4.7,1.2,7.1l-6.2,15c-1.2,2.9-0.2,6.3,2.4,8.2l10.7,7.4c2.6,1.8,6.2,1.6,8.6-0.6L944,2070c2-1.8,4.8-2.3,7.2-1.3
					c2.5,1,5.1,1.9,7.7,2.8c2.5,0.8,4.4,3,4.7,5.6l2.2,16c0.4,3.2,3,5.6,6.2,5.9l13,1.1c3.2,0.3,6.2-1.7,7.1-4.7l5-15.4
					c0.8-2.5,3-4.3,5.6-4.7c2.8-0.4,5.5-0.8,8.2-1.4c2.6-0.6,5.2,0.4,6.8,2.5l10,12.8c2,2.5,5.4,3.3,8.3,2l11.9-5.5
					c2.9-1.4,4.5-4.5,3.8-7.6l-3.5-15.8c-0.6-2.6,0.4-5.2,2.5-6.8c2.2-1.7,4.3-3.4,6.3-5.2c2-1.8,4.8-2.3,7.2-1.3l15.1,6.1
					c3,1.2,6.4,0.2,8.2-2.4l7.5-10.6c1.8-2.6,1.6-6.1-0.5-8.5l-11-11.9c-1.8-1.9-2.3-4.7-1.3-7.1c1-2.5,2-5.1,2.8-7.7
					c0.8-2.5,3-4.3,5.6-4.7l16.2-2.2c3.2-0.4,5.6-3,5.9-6.2l1.2-12.9C1114.3,1977.4,1112.4,1974.5,1109.3,1973.5z M998.9,2031.4
					c-30.6,5.3-59.6-15-64.8-45.3s15.3-59.1,45.9-64.4c30.6-5.3,59.6,15,64.8,45.3S1029.5,2026.1,998.9,2031.4z"/>
				<path d="M985.6,2102.3c-0.3,0-0.5,0-0.8,0l-13-1.1c-4.3-0.4-7.6-3.6-8.2-7.8l-2.2-16c-0.2-1.8-1.5-3.2-3.2-3.8
					c-2.7-0.8-5.3-1.8-7.9-2.8c-1.7-0.7-3.6-0.3-4.9,0.9l-12.1,10.9c-3.2,2.9-7.8,3.2-11.3,0.7l-10.7-7.4c-3.5-2.4-4.8-6.9-3.2-10.8
					l6.2-15c0.7-1.6,0.4-3.5-0.8-4.8c-1.9-2.1-3.7-4.2-5.4-6.4c-1.1-1.4-2.9-2-4.7-1.6l-16,3.5c-4.2,0.9-8.3-1.1-10.1-5l-5.5-11.7
					c-1.8-3.8-0.7-8.4,2.7-11l12.9-9.9c1.4-1.1,2.1-2.9,1.7-4.6c-0.6-2.7-1.1-5.5-1.4-8.3c-0.2-1.7-1.5-3.2-3.2-3.7l-15.6-4.9
					c-4.1-1.3-6.7-5.1-6.3-9.4l1.2-12.9c0.4-4.2,3.6-7.6,7.8-8.2l16.2-2.2c1.8-0.2,3.3-1.5,3.8-3.2c0.9-2.7,1.8-5.3,2.9-7.8
					c0.7-1.6,0.3-3.5-0.9-4.8l-11-11.9c-2.9-3.1-3.2-7.8-0.7-11.2l7.5-10.6c2.4-3.5,6.9-4.8,10.9-3.2l15.1,6.1
					c1.7,0.7,3.6,0.3,4.9-0.8c2.1-1.9,4.3-3.7,6.5-5.4c1.4-1.1,2-2.9,1.7-4.6l-3.5-15.8c-0.9-4.1,1.2-8.3,5-10.1l11.9-5.5
					c3.9-1.8,8.4-0.7,11,2.6l10,12.8c1.1,1.4,2.9,2.1,4.6,1.7c2.7-0.6,5.5-1.1,8.4-1.5c1.7-0.2,3.2-1.5,3.8-3.2l5-15.4
					c1.3-4,5.2-6.6,9.4-6.2l13,1.1c4.3,0.4,7.6,3.6,8.2,7.8l2.2,16c0.2,1.8,1.5,3.2,3.2,3.8c2.7,0.8,5.3,1.8,7.9,2.8
					c1.6,0.7,3.6,0.3,4.9-0.9l12.1-10.9c3.2-2.9,7.8-3.2,11.3-0.7l10.7,7.4c3.5,2.4,4.8,6.9,3.2,10.8l-6.2,15
					c-0.7,1.6-0.3,3.5,0.8,4.8c1.9,2,3.7,4.2,5.4,6.4c1.1,1.4,2.9,2,4.7,1.7l16-3.5c4.2-0.9,8.3,1.1,10.1,5l5.5,11.7
					c1.8,3.8,0.7,8.4-2.7,11l-12.9,9.9c-1.4,1.1-2.1,2.9-1.7,4.6c0.6,2.7,1.1,5.5,1.4,8.3c0.2,1.7,1.5,3.2,3.2,3.7l15.6,4.9
					c4.1,1.3,6.7,5.1,6.3,9.4l-1.2,12.9c-0.4,4.2-3.6,7.6-7.8,8.2l-16.2,2.2c-1.8,0.2-3.3,1.5-3.8,3.2c-0.8,2.7-1.8,5.3-2.9,7.8
					c-0.7,1.6-0.3,3.5,0.9,4.8l11,11.9c2.9,3.1,3.2,7.8,0.7,11.2l-7.5,10.6c-2.4,3.5-6.9,4.8-10.9,3.2l-15.1-6.1
					c-1.7-0.7-3.6-0.3-4.9,0.9c-2.1,1.9-4.2,3.7-6.4,5.4c-1.4,1.1-2.1,2.9-1.7,4.6l3.5,15.8c0.9,4.1-1.2,8.3-5,10.1l-11.9,5.5
					c-3.9,1.8-8.4,0.7-11-2.6l-10-12.8c-1.1-1.4-2.9-2.1-4.6-1.7c-2.7,0.6-5.5,1.1-8.4,1.5c-1.7,0.2-3.2,1.5-3.8,3.2l-5,15.4
					C993,2099.8,989.5,2102.3,985.6,2102.3z M948.6,2066.1c1.1,0,2.3,0.2,3.4,0.7c2.5,1,5,1.9,7.6,2.7c3.3,1,5.8,3.9,6.2,7.4l2.2,16
					c0.3,2.1,2,3.8,4.2,4l13,1.1c2.2,0.2,4.2-1.1,4.9-3.2l5-15.4c1.1-3.3,4-5.7,7.4-6.2c2.7-0.4,5.4-0.8,8-1.4
					c3.4-0.7,6.9,0.6,9,3.3l10,12.8c1.3,1.7,3.7,2.3,5.7,1.3l11.9-5.5c2-0.9,3.1-3,2.6-5.2l-3.5-15.8c-0.7-3.4,0.6-6.9,3.3-9
					c2.1-1.6,4.2-3.3,6.2-5.1c2.6-2.3,6.3-3,9.5-1.7l15.1,6.1c2,0.8,4.3,0.1,5.6-1.6l7.5-10.6c1.3-1.8,1.1-4.1-0.4-5.7l-11-11.9
					c-2.3-2.6-3-6.3-1.7-9.5c1-2.4,1.9-5,2.7-7.5c1.1-3.3,4-5.7,7.4-6.2l16.2-2.2c2.2-0.3,3.8-2,4-4.2l1.2-12.9
					c0.2-2.2-1.1-4.1-3.2-4.8l-15.6-4.9c-3.3-1.1-5.8-3.9-6.2-7.3c-0.4-2.7-0.8-5.3-1.4-7.9c-0.7-3.3,0.6-6.9,3.3-9l12.9-9.9
					c1.7-1.3,2.3-3.6,1.4-5.6l-5.5-11.7c-0.9-2-3.1-3-5.2-2.5l-16,3.5c-3.4,0.7-7-0.5-9.1-3.3c-1.6-2.1-3.4-4.1-5.2-6.1
					c-2.3-2.6-3-6.3-1.7-9.5l6.2-15c0.8-2,0.2-4.3-1.6-5.5l-10.7-7.4c-1.8-1.2-4.2-1.1-5.8,0.4l-12.1,10.9c-2.6,2.3-6.3,3-9.5,1.7
					c-2.5-1-5-1.9-7.6-2.7c-3.3-1-5.8-3.9-6.2-7.4l-2.2-16c-0.3-2.1-2-3.8-4.2-4l-13-1.1c-2.2-0.2-4.2,1.1-4.9,3.2l-5,15.4
					c-1.1,3.3-4,5.7-7.4,6.2c-2.7,0.4-5.4,0.8-8,1.4c-3.4,0.7-6.9-0.6-9-3.3l-10-12.8c-1.3-1.7-3.7-2.3-5.7-1.3l-11.9,5.5
					c-2,0.9-3.1,3-2.6,5.2l3.5,15.8c0.7,3.4-0.5,6.9-3.3,9c-2.1,1.6-4.2,3.4-6.2,5.2c-2.5,2.3-6.3,3-9.5,1.6l-15.1-6.1
					c-2-0.8-4.4-0.1-5.6,1.6l-7.5,10.6c-1.3,1.8-1.1,4.1,0.4,5.7l11,11.9c2.3,2.6,3,6.3,1.7,9.5c-1,2.4-1.9,4.9-2.7,7.5
					c-1.1,3.3-4,5.7-7.4,6.2l-16.2,2.2c-2.2,0.3-3.8,2-4,4.2l-1.2,12.9c-0.2,2.2,1.1,4.1,3.2,4.8l15.6,4.9c3.3,1,5.8,3.9,6.2,7.3
					c0.4,2.7,0.8,5.3,1.4,7.9c0.7,3.3-0.6,6.9-3.3,9l-12.9,9.9c-1.7,1.3-2.3,3.6-1.4,5.6l5.5,11.7c0.9,2,3.1,3,5.2,2.5l16-3.5
					c3.4-0.7,7,0.5,9.1,3.2c1.6,2.1,3.4,4.2,5.2,6.1c2.3,2.5,3,6.2,1.6,9.5l-6.2,15c-0.8,2-0.2,4.3,1.6,5.5l10.7,7.4
					c1.8,1.3,4.2,1.1,5.8-0.4l12.1-10.9C944.2,2066.9,946.4,2066.1,948.6,2066.1z M989.3,2034.4c-27.8,0-52.5-19.9-57.3-48
					c-2.6-15.2,0.9-30.6,9.9-43.2c9-12.6,22.4-21.1,37.8-23.7c15.4-2.7,30.8,0.8,43.5,9.7c12.7,8.9,21.2,22.2,23.8,37.4
					s-0.9,30.6-9.9,43.2c-9,12.6-22.4,21.1-37.8,23.7C995.9,2034.1,992.6,2034.4,989.3,2034.4z M989.7,1923.1
					c-3.1,0-6.2,0.3-9.4,0.8c-14.2,2.4-26.6,10.2-35,21.9c-8.3,11.7-11.6,25.9-9.2,39.9c5,29,32.9,48.6,62.3,43.5
					c14.2-2.4,26.6-10.2,35-21.9c8.3-11.7,11.6-25.9,9.2-39.9c-2.4-14.1-10.2-26.3-22-34.6
					C1011.5,1926.4,1000.8,1923.1,989.7,1923.1z"/>
			</g>
		</g>
		<g>
			<g>
				<path class="st0" d="M1847.7,729.2h112.7c49.4,0,89.5,40.1,89.5,89.5c0,32.6-3.2,65.2-9.5,97.2l-16.2,82.1
					c-11.3,57.4-61.6,98.7-120.1,98.7c-58.5,0-108.8-41.3-120.1-98.7l-16.2-82.1c-6.3-32-9.5-64.6-9.5-97.2
					C1758.2,769.2,1798.3,729.2,1847.7,729.2z"/>
				<g>
					<path class="st1" d="M1882.6,906.1h42.9c22,0,39.9-17.9,39.9-39.9v-137h-122.7v137C1842.7,888.2,1860.6,906.1,1882.6,906.1z"/>
					<path d="M1925.5,908.3h-42.9c-23.2,0-42.1-18.9-42.1-42.1v-137c0-1.2,1-2.2,2.2-2.2h122.7c1.2,0,2.2,1,2.2,2.2v137
						C1967.6,889.4,1948.7,908.3,1925.5,908.3z M1844.9,731.4v134.8c0,20.8,16.9,37.7,37.7,37.7h42.9c20.8,0,37.7-16.9,37.7-37.7
						V731.4H1844.9z"/>
				</g>
				<path d="M1904.1,1098.9c-59.4,0-110.8-42.3-122.3-100.5l-6.2-31.5c-0.2-1.2,0.5-2.3,1.7-2.6c1.2-0.2,2.3,0.5,2.6,1.7l6.2,31.5
					c11.1,56.2,60.7,96.9,118,96.9s106.9-40.8,118-96.9l16.2-82.1c6.3-31.8,9.5-64.4,9.5-96.8c0-48.1-39.1-87.3-87.3-87.3h-112.7
					c-16.1,0-31.8,4.4-45.4,12.7c-1,0.6-2.4,0.3-3-0.7c-0.6-1-0.3-2.4,0.7-3c14.3-8.8,30.8-13.4,47.7-13.4h112.7
					c50.5,0,91.7,41.1,91.7,91.7c0,32.7-3.2,65.6-9.5,97.7l-16.2,82.1C2014.9,1056.6,1963.4,1098.9,1904.1,1098.9z"/>
			</g>
			<g>
				<path class="st1" d="M1783.4,692.9l-165.9,29l-164.6-28.8c-0.2,0-0.2-0.4,0-0.4l166.5-29.2L1783.4,692.9z"/>
				<g>
					<polygon class="st1" points="1556.8,675 1718.2,704.1 1682,710.5 1520.5,681.3 					"/>
					<path d="M1682,712.7c-0.1,0-0.3,0-0.4,0l-161.4-29.2c-1.1-0.2-1.8-1.1-1.8-2.2c0-1.1,0.8-2,1.8-2.2l36.3-6.3c0.3,0,0.5,0,0.8,0
						l161.3,29.1c1,0.2,1.8,1.1,1.8,2.2c0,1.1-0.8,2-1.8,2.2l-36.2,6.3C1682.2,712.6,1682.1,712.7,1682,712.7z M1533.2,681.3
						l148.8,26.9l23.6-4.1l-148.8-26.8L1533.2,681.3z"/>
				</g>
				<g>
					<polygon points="1617.5,967.7 1617.5,721.7 1784.1,692.8 1784.1,938.2 					"/>
					<g>
						<polygon class="st1" points="1682.6,737.5 1682.6,710.2 1718.9,703.9 1718.9,731.1 						"/>
						<path d="M1682.6,739.7c-0.5,0-1-0.2-1.4-0.5c-0.5-0.4-0.8-1-0.8-1.7v-27.3c0-1.1,0.8-2,1.8-2.2l36.3-6.3
							c0.6-0.1,1.3,0.1,1.8,0.5c0.5,0.4,0.8,1,0.8,1.7v27.2c0,1.1-0.8,2-1.8,2.2l-36.3,6.4C1682.9,739.7,1682.8,739.7,1682.6,739.7z
							 M1684.8,712v22.9l31.9-5.7v-22.7L1684.8,712z"/>
					</g>
					<path d="M1617.5,969.9c-0.5,0-1-0.2-1.4-0.5c-0.5-0.4-0.8-1-0.8-1.7V721.7c0-1.1,0.8-2,1.8-2.2l166.6-28.9
						c0.6-0.1,1.3,0.1,1.8,0.5c0.5,0.4,0.8,1,0.8,1.7v91.8c0,1.2-1,2.2-2.2,2.2s-2.2-1-2.2-2.2v-89.2l-162.2,28.1v241.6l162.2-28.8
						V851c0-1.2,1-2.2,2.2-2.2s2.2,1,2.2,2.2v87.2c0,1.1-0.8,2-1.8,2.2l-166.6,29.5C1617.7,969.9,1617.6,969.9,1617.5,969.9z"/>
				</g>
				<g>
					<polygon class="st1" points="1617.5,967.7 1617.5,721.7 1452.3,692.7 1452.3,938.3 					"/>
					<path d="M1617.5,969.9c-0.1,0-0.3,0-0.4,0l-165.1-29.4c-1-0.2-1.8-1.1-1.8-2.2V808.8c0-1.2,1-2.2,2.2-2.2s2.2,1,2.2,2.2v127.7
						l160.7,28.6V723.5l-160.7-28.1v41.8c0,1.2-1,2.2-2.2,2.2c-1.2,0-2.2-1-2.2-2.2v-44.4c0-0.7,0.3-1.3,0.8-1.7
						c0.5-0.4,1.2-0.6,1.8-0.5l165.1,28.9c1.1,0.2,1.8,1.1,1.8,2.2v246.1c0,0.7-0.3,1.3-0.8,1.7
						C1618.5,969.8,1618,969.9,1617.5,969.9z"/>
				</g>
				<path d="M1617.4,724.1c-0.1,0-0.3,0-0.4,0l-164.6-28.8c-1.2-0.2-2-1.2-2-2.4s0.8-2.2,2-2.4l166.5-29.2c0.3,0,0.5,0,0.8,0
					l164.1,29.4c1.1,0.2,1.8,1.1,1.8,2.2c0,1.1-0.8,2-1.8,2.2l-165.9,29C1617.7,724.1,1617.6,724.1,1617.4,724.1z M1464.4,692.9
					l153,26.8l153.3-26.8l-151.4-27.1L1464.4,692.9z"/>
			</g>
			<path d="M2042.5,848.3c-231.4,0-365.6-63.4-366.9-64c-1.1-0.5-1.6-1.8-1-2.9c0.5-1.1,1.8-1.6,2.9-1
				c1.4,0.7,147.6,69.6,398.1,63.2c41.1-1.1,59.3-24.9,59-48.1c-0.3-24.4-21.1-49.1-60.4-49.3c-1.2,0-2.2-1-2.2-2.2
				c0-1.2,1-2.2,2.2-2.2c0,0,0,0,0,0c42.2,0.2,64.5,27.1,64.8,53.6c0.3,25.3-19.2,51.4-63.3,52.5
				C2064.5,848.2,2053.4,848.3,2042.5,848.3z"/>
			<path d="M1419.6,853.5c-0.3,0-0.5,0-0.8-0.1c-23.7-9-36.4-25.3-33.2-42.5c4.1-22,34.9-43.9,94.4-43.2c1.2,0,2.2,1,2.2,2.2
				c0,1.2-1,2.1-2.2,2.2c-57-0.7-86.2,19.4-90,39.6c-2.8,15,8.8,29.5,30.4,37.6c1.1,0.4,1.7,1.7,1.3,2.8
				C1421.3,853,1420.5,853.5,1419.6,853.5z"/>
			<g>
				<g>
					<g>
						<path class="st1" d="M1676.6,590.9h17.5v-93h-17.5c-16.7,0-30.3,13.5-30.3,30.3v32.5C1646.4,577.3,1659.9,590.9,1676.6,590.9z
							"/>
						<path d="M1694.1,593.1h-17.5c-17.9,0-32.5-14.6-32.5-32.5v-32.5c0-17.9,14.6-32.5,32.5-32.5h17.5c1.2,0,2.2,1,2.2,2.2v93
							C1696.3,592.1,1695.3,593.1,1694.1,593.1z M1676.6,500.1c-15.5,0-28.1,12.6-28.1,28.1v32.5c0,15.5,12.6,28.1,28.1,28.1h15.3
							v-88.6H1676.6z"/>
					</g>
					<g>
						<path class="st1" d="M2131.5,590.9h-17.5v-93h17.5c16.7,0,30.3,13.5,30.3,30.3v32.5C2161.8,577.3,2148.2,590.9,2131.5,590.9z"
							/>
						<path d="M2131.5,593.1h-17.5c-1.2,0-2.2-1-2.2-2.2v-93c0-1.2,1-2.2,2.2-2.2h17.5c17.9,0,32.5,14.6,32.5,32.5v32.5
							C2164,578.5,2149.4,593.1,2131.5,593.1z M2116.3,588.7h15.3c15.5,0,28.1-12.6,28.1-28.1v-32.5c0-15.5-12.6-28.1-28.1-28.1
							h-15.3V588.7z"/>
					</g>
				</g>
				<g>
					<path class="st1" d="M2129.1,540.5c0-100-100.7-203.3-225-203.3c-124.3,0-225,103.4-225,203.3s100.7,158.6,225,158.6
						C2028.4,699.2,2129.1,640.5,2129.1,540.5z"/>
					<path d="M1904.1,701.4c-62.6,0-119.5-15-160.3-42.2c-43.8-29.2-66.9-70.2-66.9-118.6c0-97,97.2-205.5,227.2-205.5
						c130.1,0,227.2,108.5,227.2,205.5c0,48.4-23.1,89.4-66.9,118.6C2023.6,686.4,1966.7,701.4,1904.1,701.4z M1904.1,339.4
						c-127.5,0-222.8,106.2-222.8,201.1c0,46.9,22.5,86.6,64.9,115c40.1,26.7,96.2,41.5,157.9,41.5c61.7,0,117.8-14.7,157.9-41.5
						c42.5-28.3,64.9-68.1,64.9-115C2126.9,445.6,2031.6,339.4,1904.1,339.4z"/>
				</g>
				<path d="M1752.8,510.5h216.7c22.5,0,40.8,19.7,40.8,43.9v28.7c0,18.5-9.9,38.1-26.9,41.3c-60.1,11.3-184.4,11.3-244.4,0
					c-17-3.2-26.9-22.8-26.9-41.3v-28.7C1712,530.2,1730.3,510.5,1752.8,510.5z"/>
				<g>
					<ellipse class="st1" cx="1925.7" cy="568.2" rx="13.7" ry="14.7"/>
					<ellipse class="st1" cx="1780.4" cy="568.2" rx="13.7" ry="14.7"/>
				</g>
			</g>
		</g>
	</g>
</g>
</svg>
